<svg xmlns="http://www.w3.org/2000/svg" width="103.57142228346584" height="75" fill="none" style=""><rect id="backgroundrect" width="100%" height="100%" x="0" y="0" fill="#ecabec" stroke="none" class="selected" style="" fill-opacity="1" opacity="0"/>

<defs>
<clipPath id="clip0">
<rect width="275" height="76.82540130615234" fill="white" id="svg_1"/>
</clipPath>
</defs>
<g class="currentLayer" style=""><title>Layer 1</title><g clip-path="url(#clip0)" id="svg_2" class="">
<path d="M21.820800001862644,23.82656937777996 C21.746400001862646,23.98486937777996 21.739400001862645,24.17116937777996 21.851000001862644,24.30616937777996 C21.983600001862644,24.47146937777996 22.223100001862644,24.49936937777996 22.437100001862646,24.51106937777996 C25.374300001862647,24.69726937777996 28.102200001862645,23.42146937777996 30.555700001862647,21.882669377779962 C33.56730000186265,19.992269377779962 35.97200000186265,17.338369377779962 37.906900001862645,14.37706937777996 C38.883600001862646,12.88246937777996 39.75100000186264,11.31566937777996 40.56970000186264,9.72796937777996 C41.116200001862644,8.668709377779962 42.98360000186265,6.184689377779961 42.10450000186265,5.0346393777799605 C41.802200001862644,4.638869377779961 40.58590000186265,6.7434193777799605 40.479000001862644,6.920349377779961 C39.888300001862646,7.905109377779961 39.355700001862644,9.05050937777996 38.77900000186265,10.044569377779961 C37.62550000186265,12.02576937777996 36.425500001862645,13.853269377779961 35.12550000186265,15.741269377779961 C33.65100000186265,17.88306937777996 31.772000001862644,19.74556937777996 29.525500001862646,21.065569377779962 C28.381300001862645,21.73836937777996 27.153400001862646,22.266769377779962 25.881300001862645,22.646269377779962 C24.732400001862644,22.986169377779962 23.092900001862645,22.95356937777996 22.067300001862645,23.551869377779962 C21.962700001862647,23.61236937777996 21.874300001862647,23.714869377779962 21.820800001862644,23.82656937777996 zM46.19060000186265,39.54086937777996 C43.39290000186264,39.57816937777996 40.592900001862645,39.58976937777996 37.788300001862645,39.57816937777996 C35.97200000186265,39.57816937777996 34.05570000186265,39.34766937777996 32.38130000186265,38.59336937777996 C28.813800001862646,36.99396937777996 25.392900001862646,35.07806937777996 21.858000001862646,33.40186937777996 C20.174300001862644,32.60326937777996 19.551000001862644,31.429969377779962 19.655700001862645,29.62106937777996 C19.795200001862646,27.185969377779962 19.446400001862646,24.67636937777996 19.909200001862644,22.31806937777996 C20.827800001862645,17.61766937777996 23.251000001862646,13.60186937777996 26.899900001862644,10.49856937777996 C30.858000001862646,7.132199377779961 35.15100000186265,4.222149377779961 39.83010000186265,1.8964293777799606 C43.183600001862644,0.23188237777996065 46.82780000186265,0.4064853777799607 50.38130000186265,0.09685577777996067 C52.91150000186264,-0.12430862222003937 55.47660000186264,0.11780837777996066 58.020800001862646,0.010718277779960634 C60.85800000186264,-0.11266762222003938 62.920800001862645,1.2003493777799608 64.48360000186264,3.358439377779961 C65.47200000186264,4.7226793777799605 66.31620000186264,6.221939377779961 67.01850000186265,7.7537893777799605 C69.75570000186265,13.71356937777996 71.97200000186264,19.864269377779962 73.50690000186265,26.24776937777996 C74.30690000186264,29.56286937777996 74.54870000186264,32.93626937777996 74.52310000186264,36.34446937777996 C74.51150000186264,37.592269377779964 73.95340000186265,38.07656937777996 72.86040000186264,38.18126937777996 C70.22550000186264,38.43276937777996 67.59520000186265,38.744669377779964 64.95570000186264,38.89366937777996 C58.69060000186265,39.24286937777996 52.44640000186264,39.45706937777996 46.19060000186265,39.54086937777996 z" fill="white" id="svg_3"/>
<path d="M0.03720930186264516,40.87246937777996 C0.2720930018626451,38.63526937777996 1.574420001862645,36.37236937777996 3.058140001862645,34.78696937777996 C4.879070001862646,32.83846937777996 7.406980001862645,31.75356937777996 10.074400001862646,31.77916937777996 C14.527900001862646,31.82106937777996 18.553500001862645,32.76626937777996 22.488400001862644,34.91266937777996 C33.28600000186265,40.80496937777996 44.66980000186265,45.25616937777996 56.64880000186265,48.13136937777996 C59.255800001862646,48.759869377779964 61.99300000186265,48.81116937777996 64.50000000186265,48.163969377779964 C64.64650000186265,48.12436937777996 64.63950000186264,47.91246937777996 64.49070000186265,47.88456937777996 C62.839500001862646,47.56096937777996 61.40930000186265,47.27926937777996 59.77670000186264,46.95796937777996 C59.66980000186265,46.93706937777996 59.67910000186264,46.77876937777996 59.78840000186265,46.77176937777996 C60.88370000186264,46.70196937777996 61.86510000186264,46.69496937777996 62.725600001862645,46.69496937777996 C67.61400000186265,46.69496937777996 72.31400000186264,45.92666937777996 77.10230000186264,45.12586937777996 C78.53260000186265,44.88606937777996 79.46050000186264,45.04436937777996 80.56280000186264,45.81496937777996 C81.83260000186264,46.70426937777996 83.32330000186265,46.80206937777996 84.81860000186265,46.45046937777996 C85.56510000186265,46.273569377779964 84.89540000186264,45.50766937777996 84.50700000186265,45.41216937777996 C83.81860000186265,45.24226937777996 83.07440000186264,45.33066937777996 82.37210000186265,45.12586937777996 C81.12790000186264,44.76266937777996 80.03020000186264,44.03626937777996 79.16050000186264,43.07946937777996 C77.47680000186264,41.22166937777996 76.63950000186264,38.65616937777996 76.39770000186265,36.19546937777996 C76.11400000186265,33.33666937777996 76.21160000186265,33.15736937777996 78.86280000186265,32.26106937777996 C84.22560000186265,30.445169377779962 89.69300000186264,29.33006937777996 95.35810000186264,30.66636937777996 C96.67910000186265,30.97596937777996 98.01400000186264,31.41836937777996 99.19770000186264,32.067869377779964 C103.25100000186265,34.28416937777996 104.52800000186265,38.25116937777996 101.17700000186265,42.44856937777996 C97.52560000186264,47.02086937777996 92.88140000186264,50.38716937777996 87.06050000186265,51.60706937777996 C83.56280000186264,52.34276937777996 79.95810000186265,52.82936937777996 76.38840000186265,52.91776937777996 C69.60000000186264,53.08536937777996 62.795400001862646,53.07846937777996 56.01400000186265,52.78746937777996 C49.790700001862646,52.522069377779964 43.567400001862644,52.23796937777996 37.36980000186264,51.25786937777996 C31.116300001862644,50.27076937777996 24.793000001862644,49.44896937777996 18.409300001862647,49.77726937777996 C17.365100001862647,49.83316937777996 16.239500001862645,49.61426937777996 15.539500001862645,50.69916937777996 C15.430200001862644,50.86446937777996 15.323300001862645,51.11356937777996 15.374400001862645,51.27186937777996 C15.418600001862645,51.409269377779964 15.714000001862646,51.58616937777996 15.855800001862645,51.55356937777996 C21.893000001862646,50.22886937777996 27.830200001862647,51.51866937777996 33.78840000186265,52.21476937777996 C34.755800001862646,52.32876937777996 35.72790000186264,52.38236937777996 36.714000001862644,52.60816937777996 C36.86510000186264,52.64306937777996 36.86980000186264,52.85956937777996 36.71860000186265,52.90386937777996 C36.125600001862644,53.07376937777996 35.534900001862646,53.26236937777996 34.934900001862644,53.294969377779964 C29.755800001862646,53.56266937777996 24.576700001862644,53.91416937777996 19.395400001862644,53.93746937777996 C16.781400001862647,53.95146937777996 14.097700001862645,53.61156937777996 11.565100001862644,52.95736937777996 C8.913950001862645,52.27296937777996 6.409300001862645,51.029769377779964 4.358140001862645,49.19986937777996 C2.3046500018626452,47.36536937777996 0.1674420018626452,44.77896937777996 0.009302331862645152,41.91776937777996 C-0.009302328137354854,41.570869377779964 1.862645149230957e-9,41.22166937777996 0.03720930186264516,40.87246937777996 z" fill="white" id="svg_4"/>
<path d="M77.55600000186264,56.62166937777996 C76.85140000186264,56.633369377779964 76.14670000186264,56.67986937777996 75.44670000186265,56.75436937777996 C73.76760000186265,56.928969377779964 72.07930000186265,57.14316937777996 70.72340000186264,58.23966937777996 C69.93970000186265,58.87296937777996 69.37230000186264,59.72496937777996 69.07230000186264,60.68416937777996 C68.70250000186265,61.86446937777996 68.92110000186264,62.90506937777996 68.92110000186264,64.09476937777995 C69.11180000186265,65.23546937777996 69.19090000186264,66.39946937777997 69.45600000186265,67.52156937777995 C69.87000000186265,69.28396937777995 70.42580000186264,71.02066937777997 72.27930000186265,71.84246937777996 C74.77460000186265,72.95056937777996 78.39550000186264,71.93326937777996 79.84440000186264,69.49346937777996 C81.40490000186264,66.86746937777995 82.61420000186264,64.05516937777996 82.82810000186265,60.93556937777996 C82.93970000186265,59.28266937777996 83.11420000186264,57.27586937777996 81.07230000186264,56.89176937777996 C79.91650000186264,56.67286937777996 78.73510000186265,56.59846937777996 77.55600000186264,56.62166937777996 zM41.23510000186265,65.09346937777995 C41.237400001862646,66.27606937777996 41.30720000186265,67.46576937777996 41.458300001862646,68.58786937777997 C41.85600000186265,71.53516937777997 43.17000000186265,72.75036937777996 46.095500001862646,73.41156937777995 C48.33510000186264,73.91906937777996 50.47930000186265,73.49536937777997 52.64440000186264,73.06936937777996 C54.379300001862646,72.72946937777996 55.71650000186265,71.79126937777995 56.839700001862646,70.42696937777995 C58.825800001862646,68.01046937777996 60.13040000186265,65.28436937777997 60.81410000186265,62.24156937777996 C61.42580000186265,59.51546937777996 60.79550000186264,58.30256937777996 58.13040000186265,57.441169377779964 C54.02110000186264,56.10956937777996 49.828100001862644,56.01636937777996 45.63040000186265,56.94526937777996 C43.21410000186265,57.47846937777996 41.67930000186264,59.33386937777996 41.40480000186265,61.90866937777996 C41.29550000186264,62.93306937777996 41.23510000186265,64.01086937777995 41.23510000186265,65.09346937777995 zM48.12580000186264,54.90126937777996 C53.10480000186264,54.22376937777996 58.23280000186264,55.49496937777996 63.31650000186264,56.99186937777996 C64.91650000186264,57.46446937777996 66.40720000186265,57.47606937777996 67.96300000186264,56.89176937777996 C68.94670000186265,56.52396937777996 70.02810000186264,56.40986937777996 70.99790000186265,56.01636937777996 C74.86760000186264,54.44966937777996 78.90490000186264,54.88726937777996 82.91420000186264,54.92226937777996 C83.12350000186265,54.92456937777996 83.33280000186265,54.97576937777996 83.53970000186264,55.02236937777996 C85.94210000186264,55.52986937777996 86.90020000186264,57.33876937777996 85.45140000186265,59.252369377779964 C84.04440000186264,61.10546937777996 83.55140000186265,63.22866937777996 82.77930000186265,65.29366937777996 C82.18860000186264,66.86746937777995 81.67230000186265,68.49936937777996 80.85370000186265,69.95676937777996 C79.12350000186265,73.04136937777996 76.21180000186264,73.78636937777996 72.94900000186264,73.40686937777996 C70.03970000186264,73.06466937777996 68.55600000186264,71.07656937777996 67.87460000186265,68.42956937777996 C67.43040000186265,66.70216937777997 67.10720000186265,64.93286937777997 66.84440000186264,63.16816937777996 C66.68390000186264,62.104269377779964 66.75830000186265,60.94256937777996 65.39790000186265,60.68176937777996 C63.897900001862645,60.39546937777996 63.414200001862646,61.53156937777996 62.92580000186265,62.63266937777996 C62.28390000186265,64.08076937777996 61.602500001862644,65.51246937777996 60.93970000186265,66.95126937777997 C58.411800001862645,72.45476937777995 54.23510000186265,75.25066937777996 48.08620000186264,74.71296937777996 C46.63040000186265,74.58716937777996 45.142100001862644,74.42886937777996 43.75370000186265,74.00756937777996 C41.02580000186264,73.17646937777997 39.732700001862646,71.10676937777995 39.43270000186264,68.34576937777996 C39.21650000186265,66.34826937777996 39.035100001862645,64.34386937777997 38.78160000186264,62.35336937777996 C38.704800001862644,61.74336937777996 38.483900001862644,61.14276937777996 38.26300000186264,60.56536937777996 C38.156000001862644,60.28136937777996 37.832800001862644,60.08116937777996 37.71650000186265,59.79716937777996 C36.518800001862644,56.89176937777996 37.607200001862644,55.06426937777996 40.72810000186264,54.92456937777996 C43.05600000186264,54.81746937777996 45.39090000186265,54.90126937777996 48.12580000186264,54.90126937777996 z" fill="white" id="svg_5"/>
<path d="M39.79050000186265,41.14486937777996 C39.64630000186264,41.07736937777996 39.69750000186264,40.86086937777996 39.85560000186265,40.86086937777996 C40.792800001862645,40.86786937777996 41.727700001862644,40.88416937777996 42.66260000186264,40.85386937777996 C49.74170000186265,40.62576937777996 56.82070000186265,40.45346937777996 63.892800001862646,40.11826937777996 C67.15330000186265,39.96226937777996 70.40210000186265,39.52696937777996 73.64170000186265,39.10786937777996 C74.66960000186265,38.97516937777996 75.23470000186265,39.26616937777996 75.63000000186264,40.16476937777996 C76.00210000186264,41.00286937777996 76.41370000186265,41.82936937777996 76.92070000186264,42.87466937777996 C77.02540000186265,43.09576937777996 76.89510000186264,43.354269377779964 76.65560000186265,43.40076937777996 C74.40440000186264,43.83146937777996 72.23700000186264,44.36926937777996 70.03700000186265,44.56946937777996 C65.93700000186264,44.939669377779964 61.82070000186265,45.17476937777996 57.704400001862645,45.28646937777996 C51.392800001862646,45.45876937777996 45.43930000186265,43.84546937777996 39.79050000186265,41.14486937777996 z" fill="white" id="svg_6"/>
<path d="M35.61160000186265,57.73686937777996 C35.616200001862644,59.759869377779964 35.61850000186264,59.77156937777996 33.62320000186264,60.06026937777996 C30.916200001862645,60.45136937777996 28.206900001862646,60.83546937777996 25.497600001862644,61.19396937777996 C24.332500001862645,61.34996937777996 23.186000001862645,61.41976937777996 22.304600001862646,60.33726937777996 C21.986000001862646,59.94616937777996 21.504600001862645,59.59926937777996 21.027800001862644,59.43626937777996 C20.053400001862645,59.10336937777996 19.060400001862646,59.21276937777996 18.583700001862645,60.25576937777996 C18.197600001862646,61.09856937777996 17.962700001862647,62.03206937777996 17.799900001862646,62.94936937777996 C17.539500001862645,64.40206937777997 17.416200001862645,65.88036937777996 17.190600001862645,67.33766937777996 C17.153400001862646,67.57746937777996 16.916200001862645,67.82196937777996 16.706900001862646,67.97556937777996 C16.639500001862647,68.02676937777996 16.267400001862644,67.83356937777997 16.197600001862646,67.67986937777997 C15.858100001862645,66.92566937777995 15.227800001862645,66.09686937777997 15.334800001862645,65.38916937777996 C15.632500001862645,63.42886937777996 16.051100001862647,61.43606937777996 16.813900001862645,59.62256937777996 C17.209200001862644,58.68436937777996 18.325500001862647,57.77176937777996 19.318500001862645,57.41556937777996 C24.251100001862646,55.65086937777996 29.404600001862644,55.35526937777996 34.59060000186265,55.59966937777996 C36.113900001862646,55.67186937777996 35.42780000186264,56.99886937777996 35.61160000186265,57.73686937777996 z" fill="white" id="svg_7"/>
<path d="M149.18800000186263,53.70236937777996 V44.40186937777996 H138.94200000186265 V37.36416937777996 H156.79300000186265 V57.34576937777996 C156.79300000186265,57.34576937777996 151.05600000186266,62.877169377779964 140.10200000186265,62.877169377779964 C126.89100000186265,62.877169377779964 116.38800000186265,53.13666937777996 116.38800000186265,40.12986937777996 C116.38800000186265,27.12076937777996 126.56700000186264,17.38026937777996 139.77900000186264,17.38026937777996 C150.86300000186264,17.38026937777996 156.47000000186264,23.97786937777996 156.47000000186264,23.97786937777996 L151.18400000186264,29.00646937777996 C151.18400000186264,29.00646937777996 147.44900000186266,24.42026937777996 139.77900000186264,24.42026937777996 C130.69300000186266,24.42026937777996 124.24600000186264,31.64416937777996 124.24600000186264,40.12986937777996 C124.24600000186264,48.61096937777996 131.01600000186264,55.83946937777996 140.10200000186265,55.83946937777996 C146.54400000186266,55.83946937777996 149.18800000186263,53.70236937777996 149.18800000186263,53.70236937777996 z" fill="white" id="svg_8"/>
<path d="M161.29300000186265,51.630369377779964 V32.33786937777996 H169.02300000186264 V49.55606937777996 C169.02300000186264,53.95606937777996 171.15100000186266,55.84186937777996 175.08400000186265,55.84186937777996 C179.07700000186264,55.84186937777996 181.13900000186266,52.19606937777996 181.13900000186266,52.19606937777996 V32.33786937777996 H188.87200000186266 V62.12516937777996 H181.65600000186265 V57.79036937777996 C181.65600000186265,57.79036937777996 178.75600000186265,62.87946937777996 172.50500000186264,62.87946937777996 C166.64200000186264,62.87946937777996 161.29300000186265,58.79376937777996 161.29300000186265,51.630369377779964 z" fill="white" id="svg_9"/>
<path d="M220.96000000186265,42.83036937777996 V62.12286937777996 H213.22800000186265 V44.71846937777996 C213.22800000186265,40.44416937777996 210.52100000186263,38.61896937777996 207.17000000186263,38.61896937777996 C203.17400000186265,38.61896937777996 201.11100000186264,42.45326937777996 201.11100000186264,42.45326937777996 V62.12286937777996 H193.37900000186264 V32.33556937777996 H200.59800000186266 V36.67266937777996 C200.59800000186266,36.67266937777996 203.30200000186264,31.58356937777996 209.74900000186264,31.58356937777996 C215.67700000186264,31.58356937777996 220.96000000186265,35.666969377779964 220.96000000186265,42.83036937777996 z" fill="white" id="svg_10"/>
<path d="M228.62100000186265,57.49936937777996 C227.00700000186265,57.49936937777996 225.69300000186266,58.78446937777996 225.69300000186266,60.36286937777996 C225.69300000186266,61.94356937777996 227.00700000186265,63.22866937777996 228.62100000186265,63.22866937777996 C230.23500000186266,63.22866937777996 231.54900000186265,61.94356937777996 231.54900000186265,60.36286937777996 C231.54900000186265,58.78446937777996 230.23500000186266,57.49936937777996 228.62100000186265,57.49936937777996 z" fill="white" id="svg_11"/>
<path d="M236.12800000186263,33.12016937777996 H240.17900000186265 V62.47436937777996 H236.12800000186263 V33.12016937777996 z" fill="white" id="svg_12"/>
<path d="M238.15300000186264,21.30296937777996 C236.54000000186264,21.30296937777996 235.22600000186264,22.58806937777996 235.22600000186264,24.16646937777996 C235.22600000186264,25.74726937777996 236.54000000186264,27.03226937777996 238.15300000186264,27.03226937777996 C239.76700000186264,27.03226937777996 241.08100000186263,25.74726937777996 241.08100000186263,24.16646937777996 C241.08100000186263,22.58806937777996 239.76700000186264,21.30296937777996 238.15300000186264,21.30296937777996 z" fill="white" id="svg_13"/>
<path d="M259.74200000186266,59.32226937777996 C254.20500000186266,59.32226937777996 248.62100000186265,55.76036937777996 248.62100000186265,47.79606937777996 C248.62100000186265,39.83186937777996 254.20500000186266,36.26996937777996 259.74200000186266,36.26996937777996 C265.27700000186263,36.26996937777996 270.86000000186266,39.83186937777996 270.86000000186266,47.79606937777996 C270.86000000186266,55.76036937777996 265.27700000186263,59.32226937777996 259.74200000186266,59.32226937777996 zM259.74200000186266,32.36356937777996 C251.01900000186265,32.36356937777996 244.43900000186264,38.99846937777996 244.43900000186264,47.79606937777996 C244.43900000186264,56.593769377779964 251.01900000186265,63.22866937777996 259.74200000186266,63.22866937777996 C268.46300000186267,63.22866937777996 275.03900000186263,56.593769377779964 275.03900000186263,47.79606937777996 C275.03900000186263,38.99846937777996 268.46300000186267,32.36356937777996 259.74200000186266,32.36356937777996 z" fill="white" id="svg_14"/>
</g></g></svg>