<svg xmlns="http://www.w3.org/2000/svg" xmlns:xlink="http://www.w3.org/1999/xlink" version="1.1" width="30.67033075863094" height="30.7912091136684"><rect id="backgroundrect" width="100%" height="100%" x="0" y="0" fill="none" stroke="none" class="selected" style=""/><defs><linearGradient x1="38.0013272%" y1="62.0533044%" x2="85.0990568%" y2="17.7126474%" id="__2QEraZd__linearGradient-1"><stop stop-color="#FE5000" offset="0%"/><stop stop-color="#E40038" offset="100%"/></linearGradient></defs><g class="currentLayer" style=""><title>Layer 1</title><g id="__2QEraZd__header-v3" stroke="none" stroke-width="1" fill="none" fill-rule="evenodd"><g id="__2QEraZd__Non-logged-in" fill-rule="nonzero"><g id="__2QEraZd__header"><g id="__2QEraZd__upper-nav"><g id="__2QEraZd__logo--header"><path d="M175.006231,10.2162162 C175.006231,9.59459459 175.330267,9.27027027 175.924332,9.27027027 L176.81543,9.27027027 C177.436499,9.27027027 177.760534,9.621621619999999 177.760534,10.2162162 L177.760534,11.2972973 C177.760534,11.7297297 177.706528,12.0810811 177.706528,12.0810811 L177.760534,12.0810811 C178.219585,10.7027027 179.461721,9.16216216 181.108902,9.16216216 C181.72997,9.16216216 181.972997,9.48648649 181.972997,10.108108099999999 L181.972997,11 C181.972997,11.621621600000001 181.621958,11.9459459 181.00089,11.9459459 C178.894659,11.9459459 177.895549,14.027027 177.895549,16.1351351 L177.895549,19.8378378 C177.895549,20.4594595 177.571513,20.7837838 176.977448,20.7837838 L175.978338,20.7837838 C175.35727,20.7837838 175.060237,20.4594595 175.060237,19.8378378 L175.060237,10.2162162 L175.006231,10.2162162 zM162.287834,10.2162162 C162.287834,9.59459459 162.638872,9.27027027 163.232938,9.27027027 L164.205045,9.27027027 C164.826113,9.27027027 165.150148,9.621621619999999 165.150148,10.2162162 L165.150148,16.0810811 C165.150148,17.4864865 165.501187,18.4324324 166.932344,18.4324324 C169.011573,18.4324324 170.145697,16.5945946 170.145697,14.5405405 L170.145697,10.2162162 C170.145697,9.59459459 170.469733,9.27027027 171.090801,9.27027027 L172.062908,9.27027027 C172.683976,9.27027027 173.008012,9.621621619999999 173.008012,10.2162162 L173.008012,19.8378378 C173.008012,20.4594595 172.656973,20.7837838 172.062908,20.7837838 L171.198813,20.7837838 C170.577745,20.7837838 170.280712,20.4594595 170.280712,19.8378378 L170.280712,19.1621622 C170.280712,18.8918919 170.334718,18.6486486 170.334718,18.6486486 L170.280712,18.6486486 C169.740653,19.8108108 168.25549,21.0540541 166.284273,21.0540541 C163.827003,21.0540541 162.287834,19.8108108 162.287834,16.6756757 L162.287834,10.2162162 zM154.348961,9 C157.832344,9 160.694659,11.5135135 160.694659,15.027027 C160.694659,18.5675676 157.859347,21.0540541 154.348961,21.0540541 C150.865579,21.0540541 148.030267,18.5675676 148.030267,15.027027 C148.030267,11.5135135 150.865579,9 154.348961,9 zM154.348961,18.6216216 C156.212166,18.6216216 157.778338,17.1891892 157.778338,15.027027 C157.778338,12.891891900000001 156.212166,11.4324324 154.348961,11.4324324 C152.485757,11.4324324 150.946588,12.891891900000001 150.946588,15.027027 C150.946588,17.1891892 152.485757,18.6216216 154.348961,18.6216216 zM135.554896,5.7027027 C135.554896,5.081081080000001 135.905935,4.756756760000002 136.5,4.756756760000002 L137.472107,4.756756760000002 C138.093175,4.756756760000002 138.417211,5.10810811 138.417211,5.7027027 L138.417211,10.3513514 C138.417211,10.9189189 138.336202,11.3243243 138.336202,11.3243243 L138.390208,11.3243243 C138.95727,10.2162162 140.388427,9 142.386647,9 C144.924926,9 146.410089,10.3243243 146.410089,13.378378399999999 L146.410089,19.8378378 C146.410089,20.4594595 146.05905,20.7837838 145.464985,20.7837838 L144.492878,20.7837838 C143.87181,20.7837838 143.547774,20.4594595 143.547774,19.8378378 L143.547774,13.972973 C143.547774,12.5675676 143.196736,11.621621600000001 141.738576,11.621621600000001 C139.740356,11.621621600000001 138.417211,13.2432432 138.417211,15.4324324 L138.417211,19.8378378 C138.417211,20.4594595 138.093175,20.7837838 137.472107,20.7837838 L136.5,20.7837838 C135.878932,20.7837838 135.554896,20.4594595 135.554896,19.8378378 L135.554896,5.7027027 zM128.939169,9.89189189 C128.939169,9.64864865 129.074184,9.51351351 129.317211,9.51351351 L129.506231,9.51351351 C129.749258,9.51351351 129.884273,9.64864865 129.884273,9.89189189 L129.884273,11.6486486 C129.884273,12.162162200000001 129.803264,12.5675676 129.803264,12.5675676 L129.85727,12.5675676 C130.424332,10.837837799999999 131.747478,9.43243243 133.637685,9.43243243 C133.961721,9.43243243 134.123739,9.56756757 134.123739,9.81081081 L134.123739,10.027027 C134.123739,10.2702703 133.907715,10.4054054 133.637685,10.4054054 C131.099407,10.4054054 129.911276,13.4054054 129.911276,15.9189189 L129.911276,20.4054054 C129.911276,20.6486486 129.776261,20.7837838 129.533234,20.7837838 L129.344214,20.7837838 C129.101187,20.7837838 128.966172,20.6486486 128.966172,20.4054054 L128.966172,9.89189189 L128.939169,9.89189189 zM121.918398,9.24324324 C124.861721,9.24324324 126.508902,11.378378399999999 126.508902,14.621621600000001 C126.508902,14.8648649 126.319881,15 126.103858,15 L117.408902,15 C117.408902,18.2702703 119.623145,20.1351351 122.242433,20.1351351 C123.808605,20.1351351 124.915727,19.4054054 125.428783,18.972973 C125.644807,18.8108108 125.806825,18.8378378 125.94184,19.027027 L126.076855,19.2162162 C126.184866,19.3783784 126.157864,19.5675676 125.995846,19.7027027 C125.455786,20.1621622 124.105638,21.027027 122.242433,21.027027 C119.056083,21.027027 116.436795,18.7297297 116.436795,15.1351351 C116.436795,11.3513514 119.02908,9.24324324 121.918398,9.24324324 zM125.536795,14.108108099999999 C125.428783,11.3513514 123.781602,10.108108099999999 121.918398,10.108108099999999 C119.839169,10.108108099999999 117.921958,11.4594595 117.516914,14.108108099999999 L125.536795,14.108108099999999 zM104.663501,9.89189189 C104.663501,9.64864865 104.798516,9.51351351 105.041543,9.51351351 L105.230564,9.51351351 C105.473591,9.51351351 105.608605,9.64864865 105.608605,9.89189189 L105.608605,10.8648649 C105.608605,11.378378399999999 105.527596,11.7567568 105.527596,11.7567568 L105.581602,11.7567568 C105.581602,11.7567568 106.499703,9.21621622 109.632047,9.21621622 C112.65638,9.21621622 114.492582,11.621621600000001 114.492582,15.1351351 C114.492582,18.7297297 112.38635,21.0540541 109.497033,21.0540541 C106.553709,21.0540541 105.554599,18.5135135 105.554599,18.5135135 L105.500593,18.5135135 C105.500593,18.5135135 105.581602,18.9189189 105.581602,19.5135135 L105.581602,24.9189189 C105.581602,25.1621622 105.446588,25.2972973 105.203561,25.2972973 L105.041543,25.2972973 C104.798516,25.2972973 104.663501,25.1621622 104.663501,24.9189189 L104.663501,9.89189189 zM109.524036,20.1351351 C111.738279,20.1351351 113.547478,18.2972973 113.547478,15.1351351 C113.547478,12.0810811 111.9273,10.1351351 109.632047,10.1351351 C107.552819,10.1351351 105.608605,11.5945946 105.608605,15.1351351 C105.581602,17.6756757 106.985757,20.1351351 109.524036,20.1351351 zM97.6967359,9 C100.964095,9 102.800297,11.3243243 102.800297,14.4864865 C102.800297,14.972973 102.368249,15.4594595 101.801187,15.4594595 L94.7804154,15.4594595 C94.9694362,17.5405405 96.4816024,18.6216216 98.2367953,18.6216216 C99.289911,18.6216216 100.181009,18.2162162 100.721068,17.8648649 C101.288131,17.5945946 101.693175,17.6486486 101.990208,18.1891892 L102.260237,18.6486486 C102.530267,19.1621622 102.449258,19.6216216 101.936202,19.9189189 C101.180119,20.4054054 99.8299703,21.0810811 98.0207715,21.0810811 C94.2133531,21.0810811 91.837092,18.3243243 91.837092,15.0540541 C91.864095,11.4864865 94.2403561,9 97.6967359,9 zM99.9649852,13.7297297 C99.9109792,12.1351351 98.9388724,11.1891892 97.64273,11.1891892 C96.1845697,11.1891892 95.131454,12.2162162 94.8614243,13.7297297 L99.9649852,13.7297297 zM86.868546,5.7027027 C86.868546,5.081081080000001 87.1925816,4.756756760000002 87.7866469,4.756756760000002 L88.7857567,4.756756760000002 C89.4068249,4.756756760000002 89.7038576,5.10810811 89.7038576,5.7027027 L89.7038576,16.972973 C89.7038576,18.1081081 90.189911,18.2972973 90.5949555,18.3513514 C91,18.4054054 91.2970326,18.6486486 91.2970326,19.1621622 L91.2970326,19.9189189 C91.2970326,20.5135135 91.027003,20.8918919 90.3519288,20.8918919 C88.8127596,20.8918919 86.868546,20.4864865 86.868546,17.1891892 L86.868546,5.7027027 zM73.637092,10.2162162 C73.637092,9.59459459 73.9881306,9.27027027 74.5821958,9.27027027 L75.311276,9.27027027 C75.9323442,9.27027027 76.2293769,9.621621619999999 76.2293769,10.0540541 L76.2293769,10.5675676 C76.2293769,10.8108108 76.2023739,11.027027 76.2023739,11.027027 L76.2563798,11.027027 C76.2563798,11.027027 77.2824926,9 79.9557864,9 C83.0611276,9 85.0863501,11.4594595 85.0863501,15.027027 C85.0863501,18.6756757 82.8181009,21.0540541 79.8207715,21.0540541 C77.4175074,21.0540541 76.4994065,19.2972973 76.4994065,19.2972973 L76.4454006,19.2972973 C76.4454006,19.2972973 76.5264095,19.7027027 76.5264095,20.2972973 L76.5264095,24.3513514 C76.5264095,24.972973 76.2023739,25.2972973 75.5813056,25.2972973 L74.6091988,25.2972973 C73.9881306,25.2972973 73.664095,24.972973 73.664095,24.3513514 L73.664095,10.2162162 L73.637092,10.2162162 zM79.2807122,18.6486486 C80.8468843,18.6486486 82.1700297,17.3513514 82.1700297,15.0810811 C82.1700297,12.891891900000001 81.0089021,11.4594595 79.3347181,11.4594595 C77.8495549,11.4594595 76.4183976,12.5405405 76.4183976,15.0810811 C76.4183976,16.8918919 77.4175074,18.6486486 79.2807122,18.6486486 zM65.8332344,9 C69.3166172,9 72.1789318,11.5135135 72.1789318,15.027027 C72.1789318,18.5675676 69.3436202,21.0540541 65.8332344,21.0540541 C62.3498516,21.0540541 59.5145401,18.5675676 59.5145401,15.027027 C59.5145401,11.5135135 62.3228487,9 65.8332344,9 zM65.8332344,18.6216216 C67.6964392,18.6216216 69.2626113,17.1891892 69.2626113,15.027027 C69.2626113,12.891891900000001 67.6964392,11.4324324 65.8332344,11.4324324 C63.9700297,11.4324324 62.4308605,12.891891900000001 62.4308605,15.027027 C62.4038576,17.1891892 63.9430267,18.6216216 65.8332344,18.6216216 zM53.4118694,9 C56.6792285,9 58.5154303,11.3243243 58.5154303,14.4864865 C58.5154303,14.972973 58.0833828,15.4594595 57.5163205,15.4594595 L50.495549,15.4594595 C50.6845697,17.5405405 52.1967359,18.6216216 53.9519288,18.6216216 C55.0050445,18.6216216 55.8961424,18.2162162 56.4362018,17.8648649 C57.0032641,17.5945946 57.4083086,17.6486486 57.7053412,18.1891892 L57.9753709,18.6486486 C58.2454006,19.1621622 58.1643917,19.6216216 57.6513353,19.9189189 C56.8952522,20.4054054 55.5451039,21.0810811 53.735905,21.0810811 C49.9284866,21.0810811 47.5522255,18.3243243 47.5522255,15.0540541 C47.5792285,11.4864865 49.9554896,9 53.4118694,9 zM55.6801187,13.7297297 C55.6261128,12.1351351 54.6540059,11.1891892 53.3578635,11.1891892 C51.8997033,11.1891892 50.8465875,12.2162162 50.5765579,13.7297297 L55.6801187,13.7297297 zM34.9418398,10.2162162 C34.9418398,9.59459459 35.2928783,9.27027027 35.8869436,9.27027027 L36.6160237,9.27027027 C37.237092,9.27027027 37.5341246,9.621621619999999 37.5341246,10.0540541 L37.5341246,10.5675676 C37.5341246,10.8108108 37.5071217,11.027027 37.5071217,11.027027 L37.5611276,11.027027 C37.5611276,11.027027 38.5872404,9 41.2605341,9 C44.3658754,9 46.3910979,11.4594595 46.3910979,15.027027 C46.3910979,18.6756757 44.1228487,21.0540541 41.1255193,21.0540541 C38.7222552,21.0540541 37.8041543,19.2972973 37.8041543,19.2972973 L37.7501484,19.2972973 C37.7501484,19.2972973 37.8311573,19.7027027 37.8311573,20.2972973 L37.8311573,24.3513514 C37.8311573,24.972973 37.5071217,25.2972973 36.8860534,25.2972973 L35.9139466,25.2972973 C35.2928783,25.2972973 34.9688427,24.972973 34.9688427,24.3513514 L34.9688427,10.2162162 L34.9418398,10.2162162 zM40.585459900000004,18.6486486 C42.151632,18.6486486 43.4747774,17.3513514 43.4747774,15.0810811 C43.4747774,12.891891900000001 42.3136499,11.4594595 40.6394659,11.4594595 C39.1543027,11.4594595 37.7231454,12.5405405 37.7231454,15.0810811 C37.7231454,16.8918919 38.7222552,18.6486486 40.585459900000004,18.6486486 z" id="__2QEraZd__Combined-Shape" fill="#28334A"/><path d="M15,2.6599634399999985 C8.19926874,2.6599634399999985 2.6599634399999985,8.17184644 2.6599634399999985,15 C2.6599634399999985,21.8281536 8.17184644,27.3400366 15,27.3400366 C21.8281536,27.3400366 27.3400366,21.8281536 27.3400366,15 C27.3400366,8.19926874 21.8281536,2.6599634399999985 15,2.6599634399999985 zM30,15 C30,23.2815356 23.2815356,30 15,30 C6.718464349999998,30 0,23.2815356 0,15 C-3.552713678800501e-15,6.718464349999998 6.718464349999998,-9.592326932761353e-14 15,-9.592326932761353e-14 C23.2815356,-9.592326932761353e-14 30,6.718464349999998 30,15 zM8.583180990000002,8.473491770000003 C10.1462523,8.473491770000003 11.4076782,9.73491773 11.4076782,11.297989 C11.4076782,12.8610603 10.1462523,14.1224863 8.583180990000002,14.1224863 C6.99268739,14.095064 5.758683730000001,12.833638 5.758683730000001,11.297989 C5.758683730000001,9.73491773 7.020109689999998,8.473491770000003 8.583180990000002,8.473491770000003 zM21.2522852,8.473491770000003 C22.8153565,8.473491770000003 24.0767824,9.73491773 24.0767824,11.297989 C24.0767824,12.8610603 22.8153565,14.1224863 21.2522852,14.1224863 C19.6892139,14.1224863 18.4277879,12.833638 18.4277879,11.297989 C18.4277879,9.73491773 19.6892139,8.473491770000003 21.2522852,8.473491770000003 z" id="__2QEraZd__Shape" fill="url(#__2QEraZd__linearGradient-1)"/></g></g></g></g></g></g></svg>